<svg width="90" height="94" viewBox="0 0 90 94" fill="none" xmlns="http://www.w3.org/2000/svg">
<path d="M36.6056 93.0483C23.0116 90.9039 11.0684 83.3579 3.93658 72.4072C1.63287 68.8699 0.242641 66.184 0.715469 66.184C0.820279 66.184 1.802 66.7887 2.8972 67.5279C5.48893 69.277 10.4753 71.3844 14.7735 72.5472C20.0616 73.9778 29.287 73.8888 35.0308 72.3519C65.6336 64.1631 75.8283 26.3149 53.5511 3.59479L50.6901 0.676781L52.365 0.98387C53.2862 1.15286 55.552 1.79069 57.4 2.40147C73.4885 7.71869 85.2577 21.1235 88.8158 38.1834C89.5694 41.7964 89.562 51.3331 88.8026 55.2077C84.5472 76.9196 66.3592 92.5199 44.4078 93.2864C41.5742 93.3853 38.0632 93.2777 36.6056 93.0483H36.6056Z" fill="white"/>
</svg>
