<svg width="96" height="96" viewBox="0 0 96 96" fill="none" xmlns="http://www.w3.org/2000/svg">
<path d="M48.0775 0.369806C47.6771 0.35911 47.2618 0.554043 46.8193 0.954518C46.2223 1.49476 46.1386 2.20394 46.1386 6.70492C46.1386 11.5883 46.1784 11.8676 46.9655 12.419C47.4206 12.7378 47.8867 12.9986 48.0004 12.9986C48.114 12.9986 48.5794 12.7378 49.0345 12.419C49.8208 11.8682 49.8621 11.5862 49.8621 6.76965C49.8621 2.57501 49.7553 1.58268 49.2454 1.01924C48.8631 0.596775 48.4778 0.38048 48.0775 0.369806ZM25.0417 6.66929C24.1982 6.69257 23.425 7.31231 23.425 8.30197C23.425 9.04463 27.1382 15.968 28.1907 17.1876C29.2051 18.3631 31.2444 17.6899 31.2444 16.1796C31.2444 15.3316 27.6731 8.68676 26.4831 7.32018C26.0789 6.85609 25.5477 6.65531 25.0417 6.66929ZM70.9584 6.66929C70.4523 6.65534 69.9211 6.85609 69.5169 7.32018C68.3307 8.68237 64.7563 15.3306 64.7563 16.1745C64.7563 16.6601 65.0495 17.2283 65.4079 17.437C66.3768 18.0014 67.179 17.918 67.8093 17.1876C68.8618 15.968 72.5758 9.04463 72.5758 8.30197C72.5758 7.31231 71.8018 6.69257 70.9584 6.66929V6.66929ZM48.0004 18.4188C40.4653 18.4188 32.9303 21.3212 27.126 27.1255C15.4988 38.7527 15.4988 57.2471 27.126 68.8743C31.8519 73.6002 38.0272 76.635 44.4434 77.3847C45.8875 77.5534 47.237 77.7117 47.4418 77.7367C47.6466 77.7616 49.2758 77.6148 51.0621 77.4101C75.8565 74.5691 86.4404 44.6911 68.8748 27.1255C63.0705 21.3212 55.5354 18.4188 48.0004 18.4188V18.4188ZM8.3257 23.4274C7.33642 23.424 6.66901 24.1097 6.66901 25.1292C6.66901 26.1523 7.07797 26.488 11.4645 29.0702C15.5412 31.4699 16.8854 31.7383 17.548 30.284C17.8562 29.6076 17.8707 29.1403 17.5975 28.7015C17.0743 27.8613 9.28528 23.4307 8.3257 23.4274ZM87.6743 23.4274C86.7147 23.4308 78.9257 27.8613 78.4025 28.7015C78.1293 29.1403 78.1438 29.6076 78.452 30.284C78.7482 30.9341 79.1829 31.244 79.7988 31.244C80.6627 31.244 87.2965 27.6875 88.6801 26.4826C89.9284 25.3956 89.2783 23.4219 87.6743 23.4274H87.6743ZM6.78246 46.1381C2.57617 46.1381 1.5833 46.2441 1.01969 46.7541C0.174754 47.5188 0.154014 48.2959 0.95497 49.181C1.49535 49.7781 2.20462 49.8617 6.71774 49.8617C11.7966 49.8617 11.8728 49.8496 12.4747 48.9308C13.0397 48.0685 13.0397 47.9314 12.4747 47.069C11.8734 46.1514 11.7923 46.1381 6.78246 46.1381H6.78246ZM89.2823 46.1381C84.2034 46.1381 84.1272 46.1502 83.5253 47.069C82.9603 47.9314 82.9603 48.0685 83.5253 48.9308C84.1266 49.8485 84.2077 49.8617 89.2175 49.8617C93.4238 49.8617 94.4167 49.7557 94.9803 49.2457C95.8253 48.481 95.846 47.7039 95.0451 46.8189C94.5047 46.2217 93.7954 46.1381 89.2823 46.1381H89.2823ZM16.2011 64.7559C15.3373 64.7559 8.70424 68.3116 7.32063 69.5165C6.56871 70.1713 6.46591 71.4791 7.11554 72.1288C7.36129 72.3745 7.90586 72.5738 8.3257 72.5724C9.28528 72.569 17.0743 68.1385 17.5975 67.2984C18.1982 66.3336 17.3317 64.7559 16.2011 64.7559ZM79.7989 64.7559C78.6683 64.7559 77.8018 66.3336 78.4025 67.2984C78.6158 67.6409 80.6172 68.9667 82.8504 70.2452C85.0836 71.5237 87.2545 72.5709 87.6743 72.5724C89.2784 72.5781 89.9284 70.6035 88.6801 69.5165C87.2965 68.3116 80.6627 64.7559 79.7989 64.7559V64.7559ZM29.5063 78.2079C29.2227 78.1935 28.9431 78.252 28.7019 78.4021C27.8618 78.9252 23.4305 86.715 23.4271 87.6746C23.4257 88.0944 23.6257 88.639 23.8715 88.8847C24.5211 89.5344 25.8283 89.4316 26.4831 88.6797C27.6879 87.2961 31.2444 80.6623 31.2444 79.7984C31.2444 78.9505 30.357 78.2512 29.5063 78.2079V78.2079ZM66.4937 78.2079C65.643 78.2511 64.7563 78.9505 64.7563 79.7984C64.7563 80.6623 68.3121 87.296 69.5169 88.6797C70.6039 89.9279 72.5783 89.2786 72.5729 87.6746C72.5695 86.715 68.1382 78.9252 67.2981 78.4021C67.0569 78.2519 66.7773 78.1935 66.4937 78.2079V78.2079ZM48.0004 83.1016C47.7505 83.1016 47.5006 83.2431 47.0695 83.5256C46.1518 84.1269 46.1386 84.2072 46.1386 89.2171C46.1386 93.4234 46.2445 94.417 46.7546 94.9806C47.5192 95.8256 48.2957 95.8463 49.1807 95.0453C49.7778 94.505 49.8621 93.795 49.8621 89.2818C49.8621 84.2029 49.85 84.1275 48.9313 83.5256C48.5001 83.2431 48.2502 83.1016 48.0004 83.1016V83.1016Z" fill="#F4B81D"/>
</svg>
